<svg width="389.7" height="75.201" viewBox="0 0 389.7 75.201" xmlns="http://www.w3.org/2000/svg"><g id="svgGroup" stroke-linecap="round" fill-rule="evenodd" font-size="9pt" stroke="#ffffff" stroke-width="0.25mm" fill="#ffffff" style="stroke:#ffffff;stroke-width:0.25mm;fill:#ffffff"><path d="M 70.5 74 L 61.5 74 L 61.5 0 L 70.5 0 L 70.5 30.3 Q 73.3 26.2 77.6 23.5 A 17.572 17.572 0 0 1 84.725 20.991 A 22.595 22.595 0 0 1 87.7 20.8 A 23.225 23.225 0 0 1 92.765 21.318 Q 97.859 22.456 100.85 26.1 Q 104.975 31.126 105.188 39.209 A 33.764 33.764 0 0 1 105.2 40.1 L 105.2 74 L 96.2 74 L 96.2 41.1 Q 96.2 35.5 93.6 32.1 A 8.42 8.42 0 0 0 87.442 28.753 A 11.979 11.979 0 0 0 86.3 28.7 A 13.23 13.23 0 0 0 79.587 30.566 A 17.586 17.586 0 0 0 77.55 31.95 Q 73.4 35.2 70.5 39.6 L 70.5 74 Z M 31 74 L 21.5 74 L 21.5 12.4 L 0 12.4 L 0 4 L 52.5 4 L 52.5 12.4 L 31 12.4 L 31 74 Z M 307.1 27.2 L 307.1 0 L 316.1 0 L 316.1 61.4 A 12.15 12.15 0 0 0 316.202 63.036 Q 316.534 65.47 317.95 66.35 Q 319.8 67.5 322 67.5 L 320.1 74.5 Q 310.6 74.5 308.5 66.9 Q 306.3 70 302.35 72.6 Q 298.4 75.2 292.4 75.2 Q 286 75.2 280.7 71.9 A 22.692 22.692 0 0 1 273.162 64.109 A 27.622 27.622 0 0 1 272.3 62.55 A 27.533 27.533 0 0 1 269.712 54.608 A 37.221 37.221 0 0 1 269.2 48.3 A 33.94 33.94 0 0 1 270.089 40.386 A 27.963 27.963 0 0 1 272.35 34.2 A 27.291 27.291 0 0 1 276.969 27.609 A 24.186 24.186 0 0 1 280.75 24.4 Q 286 20.8 292.3 20.8 A 21.642 21.642 0 0 1 296.572 21.202 A 15.942 15.942 0 0 1 301.25 22.9 A 34.343 34.343 0 0 1 303.83 24.489 Q 305.054 25.324 306.025 26.174 A 16.59 16.59 0 0 1 307.1 27.2 Z M 199.7 51.7 L 163.3 51.7 A 24.088 24.088 0 0 0 164.439 56.725 Q 165.775 60.538 168.4 63.1 Q 172.6 67.2 179.5 67.2 Q 184 67.2 187.6 66.25 Q 191.2 65.3 194.5 63.8 L 196.6 71.5 A 40.77 40.77 0 0 1 192.265 73.126 A 51.863 51.863 0 0 1 188.5 74.15 A 38.914 38.914 0 0 1 183.408 74.969 A 52.025 52.025 0 0 1 178.4 75.2 A 28.318 28.318 0 0 1 170.654 74.195 A 21.108 21.108 0 0 1 160.65 68.05 A 23.521 23.521 0 0 1 155.445 58.51 Q 154.1 53.845 154.1 48 A 35.359 35.359 0 0 1 154.933 40.178 A 28.84 28.84 0 0 1 157.05 34.05 A 24.642 24.642 0 0 1 162.066 26.968 A 22.887 22.887 0 0 1 165.3 24.35 A 21.048 21.048 0 0 1 175.559 20.878 A 26.205 26.205 0 0 1 177.6 20.8 Q 185.1 20.8 190.05 24.05 Q 195 27.3 197.5 32.8 A 28.185 28.185 0 0 1 199.926 42.664 A 33.434 33.434 0 0 1 200 44.9 A 75.204 75.204 0 0 1 199.709 51.597 A 69.426 69.426 0 0 1 199.7 51.7 Z M 361 56.1 L 361 31.7 L 352 31.7 L 352 23.9 L 361.2 23.9 L 363.1 7.5 L 370 7.5 L 370 23.9 L 384.4 23.9 L 384.4 31.7 L 370 31.7 L 370 56.8 A 21.559 21.559 0 0 0 370.168 59.596 Q 370.641 63.202 372.45 64.9 Q 374.9 67.2 378.3 67.2 Q 380.8 67.2 383.05 66.4 Q 385.3 65.6 387.2 64.5 L 389.7 71.7 A 18.546 18.546 0 0 1 388.082 72.556 Q 387.28 72.935 386.334 73.308 A 43.365 43.365 0 0 1 384.3 74.05 Q 380.9 75.2 377.2 75.2 Q 369.7 75.2 365.35 70.25 A 16.116 16.116 0 0 1 362.122 64.348 Q 361.359 61.917 361.115 58.98 A 34.777 34.777 0 0 1 361 56.1 Z M 247.6 26.2 L 247.6 22 L 255.8 22 L 255.8 61.4 A 12.15 12.15 0 0 0 255.902 63.036 Q 256.234 65.47 257.65 66.35 Q 259.5 67.5 261.7 67.5 L 259.8 74.5 A 17.722 17.722 0 0 1 255.535 74.028 Q 249.898 72.628 248.303 67.08 A 13.59 13.59 0 0 1 248.2 66.7 A 21.307 21.307 0 0 1 245.09 70.126 A 28.498 28.498 0 0 1 241.95 72.55 Q 238 75.2 231.9 75.2 Q 225.4 75.2 220.1 71.9 A 22.947 22.947 0 0 1 212.687 64.373 A 27.923 27.923 0 0 1 211.65 62.55 A 27.228 27.228 0 0 1 209.02 54.608 A 36.644 36.644 0 0 1 208.5 48.3 A 33.142 33.142 0 0 1 209.497 40.031 A 27.968 27.968 0 0 1 211.65 34.3 Q 214.8 28.1 220.35 24.45 A 22.297 22.297 0 0 1 231.545 20.844 A 27.388 27.388 0 0 1 233.1 20.8 A 22.584 22.584 0 0 1 237.894 21.29 A 18.703 18.703 0 0 1 241.25 22.35 A 26.002 26.002 0 0 1 245.537 24.644 A 22.103 22.103 0 0 1 247.6 26.2 Z M 129.7 74 L 120.7 74 L 120.7 22 L 129.4 22 L 129.4 33.3 Q 130.7 30 132.9 27.15 Q 135.1 24.3 138.4 22.55 A 14.817 14.817 0 0 1 143.08 21.026 A 19.459 19.459 0 0 1 146.1 20.8 Q 147.6 20.8 149.1 20.95 A 18.972 18.972 0 0 1 150.155 21.084 Q 150.655 21.162 151.082 21.262 A 8.817 8.817 0 0 1 151.6 21.4 L 148.9 30.7 A 9.763 9.763 0 0 0 146.755 30.088 Q 145.659 29.9 144.4 29.9 A 12.958 12.958 0 0 0 137.77 31.746 A 15.609 15.609 0 0 0 137.35 32 Q 134.022 34.086 131.878 38.442 A 22.927 22.927 0 0 0 131.85 38.5 Q 130.087 42.107 129.77 47.328 A 39.09 39.09 0 0 0 129.7 49.7 L 129.7 74 Z M 343 74 L 334 74 L 334 22 L 343 22 L 343 74 Z M 246.8 60.7 L 246.8 32.8 Q 244.1 30.9 240.85 29.75 Q 237.6 28.6 234 28.6 A 15.924 15.924 0 0 0 229.029 29.354 A 14.024 14.024 0 0 0 225.55 31.05 A 16.301 16.301 0 0 0 220.531 36.474 A 19.962 19.962 0 0 0 219.8 37.85 A 20.663 20.663 0 0 0 218.047 43.527 A 27.678 27.678 0 0 0 217.7 48 Q 217.7 53.6 219.8 57.95 A 17.602 17.602 0 0 0 222.906 62.496 A 15.697 15.697 0 0 0 225.6 64.75 Q 229.3 67.2 233.9 67.2 Q 237.7 67.2 241.1 65.35 Q 244.5 63.5 246.8 60.7 Z M 307.1 60.9 L 307.1 35.1 A 15.847 15.847 0 0 0 304.989 32.927 Q 303.868 31.964 302.469 31.066 A 28.139 28.139 0 0 0 301.8 30.65 Q 298.4 28.6 294.3 28.6 A 14.946 14.946 0 0 0 289.344 29.4 A 13.385 13.385 0 0 0 285.9 31.2 A 16.69 16.69 0 0 0 280.73 37.35 A 19.924 19.924 0 0 0 280.35 38.15 A 22.19 22.19 0 0 0 278.61 44.514 A 28.113 28.113 0 0 0 278.4 48 A 24.757 24.757 0 0 0 278.993 53.519 A 20.327 20.327 0 0 0 280.5 57.85 A 18.205 18.205 0 0 0 283.54 62.363 A 16.122 16.122 0 0 0 286.25 64.7 Q 289.9 67.2 294.4 67.2 Q 298.1 67.2 301.45 65.45 Q 304.8 63.7 307.1 60.9 Z M 163.2 44.4 L 191.7 44.4 A 24.355 24.355 0 0 0 191.296 39.815 Q 190.8 37.231 189.696 35.207 A 12.422 12.422 0 0 0 187.9 32.7 A 12.488 12.488 0 0 0 180.939 28.924 A 18.395 18.395 0 0 0 177.4 28.6 A 13.58 13.58 0 0 0 172.288 29.535 A 12.524 12.524 0 0 0 167.8 32.65 Q 164 36.7 163.2 44.4 Z M 334.137 11.288 A 5.973 5.973 0 0 0 338.5 13.1 A 8.175 8.175 0 0 0 339.996 12.969 A 5.647 5.647 0 0 0 343.1 11.35 Q 344.8 9.6 344.8 6.8 A 7.26 7.26 0 0 0 344.8 6.719 A 6.06 6.06 0 0 0 342.95 2.35 A 7.395 7.395 0 0 0 342.892 2.293 A 6.059 6.059 0 0 0 338.5 0.5 A 8.264 8.264 0 0 0 336.844 0.658 A 5.661 5.661 0 0 0 333.9 2.2 A 5.588 5.588 0 0 0 332.429 4.832 A 7.987 7.987 0 0 0 332.2 6.8 A 5.992 5.992 0 0 0 332.692 9.219 A 6.643 6.643 0 0 0 334.05 11.2 A 7.466 7.466 0 0 0 334.137 11.288 Z" vector-effect="non-scaling-stroke"/></g></svg>